<svg xmlns="http://www.w3.org/2000/svg" width="1600" height="1600" viewBox="0 0 1600 1600"><path d="M1600 303.778c-58.87 26.106-122.13 43.753-188.53 51.688 67.768-40.625 119.82-104.953 144.33-181.61-63.43 37.623-133.68 64.938-208.453 79.657-59.875-63.797-145.19-103.656-239.603-103.656-181.284 0-328.263 146.966-328.263 328.247 0 25.728 2.904 50.78 8.5 74.81-272.81-13.695-514.69-144.376-676.59-342.98-28.256 48.482-44.447 104.87-44.447 165.03 0 113.886 57.95 214.362 146.03 273.227-53.808-1.705-104.424-16.47-148.677-41.058-.03 1.37-.03 2.744-.03 4.128 0 159.044 113.152 291.712 263.315 321.875-27.54 7.5-56.543 11.52-86.48 11.52-21.153 0-41.716-2.064-61.762-5.895 41.775 130.406 163 225.322 306.644 227.962-112.344 88.047-253.884 140.522-407.68 140.522-26.498 0-52.626-1.553-78.307-4.594 145.27 93.14 317.816 147.49 503.19 147.49 603.785 0 933.963-500.193 933.963-933.974 0-14.23-.322-28.388-.953-42.47 64.15-46.28 119.8-104.093 163.806-169.918z"/></svg>