<?xml version="1.0" encoding="utf-8"?>
<!-- Generated by IcoMoon.io -->
<!DOCTYPE svg PUBLIC "-//W3C//DTD SVG 1.1//EN" "http://www.w3.org/Graphics/SVG/1.1/DTD/svg11.dtd">
<svg version="1.1" xmlns="http://www.w3.org/2000/svg" xmlns:xlink="http://www.w3.org/1999/xlink" width="1600" height="1600" viewBox="0 0 1600 1600"><g id="icomoon-ignore">
</g>
<path d="M1600 303.778c-58.869 26.106-122.131 43.753-188.531 51.688 67.769-40.625 119.822-104.953 144.331-181.609-63.431 37.622-133.681 64.937-208.453 79.656-59.875-63.797-145.191-103.656-239.603-103.656-181.284 0-328.263 146.966-328.263 328.247 0 25.728 2.903 50.781 8.5 74.809-272.812-13.694-514.691-144.375-676.591-342.978-28.256 48.481-44.447 104.869-44.447 165.028 0 113.887 57.95 214.363 146.031 273.228-53.809-1.706-104.425-16.472-148.678-41.059-0.031 1.369-0.031 2.744-0.031 4.128 0 159.044 113.153 291.712 263.316 321.875-27.541 7.5-56.544 11.519-86.481 11.519-21.153 0-41.716-2.063-61.762-5.894 41.775 130.406 163 225.322 306.644 227.962-112.344 88.047-253.884 140.522-407.681 140.522-26.497 0-52.625-1.553-78.306-4.594 145.269 93.141 317.816 147.491 503.191 147.491 603.784 0 933.962-500.194 933.962-933.975 0-14.231-0.322-28.388-0.953-42.469 64.15-46.281 119.8-104.094 163.806-169.919z"></path>
</svg>
